<svg xmlns="http://www.w3.org/2000/svg" xmlns:xlink="http://www.w3.org/1999/xlink" width="7755" zoomAndPan="magnify" viewBox="0 0 5816.25 2352.749956" height="3137" preserveAspectRatio="xMidYMid meet" version="1.0"><defs><clipPath id="7be47a58a6"><path d="M 0.0351562 19 L 490.070312 19 L 490.070312 1379 L 0.0351562 1379 Z M 0.0351562 19 " clip-rule="nonzero"/></clipPath><clipPath id="350b077b72"><path d="M 489.210938 1344.066406 C 488.070312 1364.210938 473.671875 1374.285156 445.878906 1374.285156 C 452.53125 1374.285156 379.269531 1375.425781 225.949219 1377.65625 C 132.640625 1379.890625 67.644531 1378.796875 30.964844 1374.332031 C 14.289062 1372.097656 5.976562 1358.746094 5.976562 1334.328125 C 0.417969 769.992188 -1.199219 345.574219 0.984375 61.175781 C 0.984375 30.101562 11.011719 16.183594 30.964844 19.507812 C 54.292969 22.882812 114.253906 22.882812 210.9375 19.507812 C 225.378906 18.414062 233.695312 23.972656 235.976562 36.136719 L 234.3125 67.777344 C 237.636719 116.621094 238.160156 266.945312 235.976562 518.707031 C 233.742188 792.703125 234.3125 982.9375 237.589844 1089.40625 C 238.730469 1114.921875 251.464844 1128.273438 275.933594 1129.363281 L 449.253906 1129.363281 C 475.90625 1129.363281 489.210938 1139.4375 489.210938 1159.582031 C 490.347656 1198.730469 490.347656 1260.210938 489.210938 1344.066406 " clip-rule="nonzero"/></clipPath><clipPath id="63482d4ce6"><path d="M 0.0351562 0 L 490.070312 0 L 490.070312 1360 L 0.0351562 1360 Z M 0.0351562 0 " clip-rule="nonzero"/></clipPath><clipPath id="81cbd3f067"><path d="M 489.210938 1325.066406 C 488.070312 1345.210938 473.671875 1355.285156 445.878906 1355.285156 C 452.53125 1355.285156 379.269531 1356.425781 225.949219 1358.65625 C 132.640625 1360.890625 67.644531 1359.796875 30.964844 1355.332031 C 14.289062 1353.097656 5.976562 1339.746094 5.976562 1315.328125 C 0.417969 750.992188 -1.199219 326.574219 0.984375 42.175781 C 0.984375 11.101562 11.011719 -2.816406 30.964844 0.507812 C 54.292969 3.882812 114.253906 3.882812 210.9375 0.507812 C 225.378906 -0.585938 233.695312 4.972656 235.976562 17.136719 L 234.3125 48.777344 C 237.636719 97.621094 238.160156 247.945312 235.976562 499.707031 C 233.742188 773.703125 234.3125 963.9375 237.589844 1070.40625 C 238.730469 1095.921875 251.464844 1109.273438 275.933594 1110.363281 L 449.253906 1110.363281 C 475.90625 1110.363281 489.210938 1120.4375 489.210938 1140.582031 C 490.347656 1179.730469 490.347656 1241.210938 489.210938 1325.066406 " clip-rule="nonzero"/></clipPath><clipPath id="35d5034433"><rect x="0" width="491" y="0" height="1360"/></clipPath><clipPath id="d5792b7c4c"><path d="M 612.554688 22.867188 L 1195.8125 22.867188 L 1195.8125 1383 L 612.554688 1383 Z M 612.554688 22.867188 " clip-rule="nonzero"/></clipPath><clipPath id="3b8c028ab7"><path d="M 1195.800781 56.171875 L 1192.429688 1086.402344 C 1192.429688 1150.777344 1178.554688 1207.363281 1150.761719 1256.160156 C 1102.964844 1340.539062 1021.339844 1382.632812 905.792969 1382.632812 C 775.804688 1382.632812 691.378906 1351.609375 652.464844 1289.464844 C 625.859375 1249.507812 612.554688 1172.398438 612.554688 1058.132812 L 612.554688 56.171875 C 612.554688 46.8125 614.503906 38.925781 618.398438 32.511719 C 622.25 26.050781 627.570312 22.867188 634.222656 22.867188 L 812.53125 22.867188 C 831.390625 22.867188 840.847656 31.179688 840.847656 47.855469 L 840.847656 566.109375 C 839.753906 873.835938 839.183594 1023.878906 839.183594 1016.085938 C 839.183594 1102.699219 861.988281 1146.027344 907.550781 1146.027344 C 947.507812 1146.027344 967.511719 1102.699219 967.511719 1016.085938 L 967.511719 56.171875 C 966.371094 33.9375 973.59375 22.867188 989.128906 22.867188 C 1099.117188 22.867188 1161.070312 23.484375 1174.945312 24.671875 C 1188.816406 25.859375 1195.800781 36.3125 1195.800781 56.21875 " clip-rule="nonzero"/></clipPath><clipPath id="6cba38a182"><path d="M 0.554688 0.867188 L 583.8125 0.867188 L 583.8125 1360.667969 L 0.554688 1360.667969 Z M 0.554688 0.867188 " clip-rule="nonzero"/></clipPath><clipPath id="10e3a3fe63"><path d="M 583.800781 34.171875 L 580.429688 1064.402344 C 580.429688 1128.777344 566.554688 1185.363281 538.761719 1234.160156 C 490.964844 1318.539062 409.339844 1360.632812 293.792969 1360.632812 C 163.804688 1360.632812 79.378906 1329.609375 40.464844 1267.464844 C 13.859375 1227.507812 0.554688 1150.398438 0.554688 1036.132812 L 0.554688 34.171875 C 0.554688 24.8125 2.503906 16.925781 6.398438 10.511719 C 10.25 4.050781 15.570312 0.867188 22.222656 0.867188 L 200.53125 0.867188 C 219.390625 0.867188 228.847656 9.179688 228.847656 25.855469 L 228.847656 544.109375 C 227.753906 851.835938 227.183594 1001.878906 227.183594 994.085938 C 227.183594 1080.699219 249.988281 1124.027344 295.550781 1124.027344 C 335.507812 1124.027344 355.511719 1080.699219 355.511719 994.085938 L 355.511719 34.171875 C 354.371094 11.9375 361.59375 0.867188 377.128906 0.867188 C 487.117188 0.867188 549.070312 1.484375 562.945312 2.671875 C 576.816406 3.859375 583.800781 14.3125 583.800781 34.21875 " clip-rule="nonzero"/></clipPath><clipPath id="b926d93baa"><rect x="0" width="584" y="0" height="1361"/></clipPath><clipPath id="fcb4cb7896"><path d="M 1329.105469 16 L 2207.285156 16 L 2207.285156 1387 L 1329.105469 1387 Z M 1329.105469 16 " clip-rule="nonzero"/></clipPath><clipPath id="7a430bba1f"><path d="M 2205.636719 1329.171875 C 2205.636719 1348.128906 2205.019531 1359.769531 2203.972656 1364.285156 C 2200.601562 1377.632812 2193.949219 1384.855469 2183.972656 1385.996094 C 2179.503906 1387.136719 2110.660156 1385.996094 1977.296875 1382.625 C 1959.527344 1382.625 1950.074219 1370.414062 1948.980469 1345.992188 C 1946.75 1317.105469 1946.226562 1265.984375 1947.367188 1192.671875 C 1947.367188 1143.785156 1947.886719 1079.929688 1948.980469 1001.0625 C 1950.074219 925.472656 1950.644531 884.945312 1950.644531 879.433594 C 1950.644531 856.105469 1948.410156 844.371094 1943.992188 844.371094 C 1938.386719 844.371094 1933.398438 853.871094 1928.980469 872.78125 C 1920.09375 912.882812 1909.546875 986.429688 1897.335938 1093.421875 C 1882.847656 1221.558594 1873.4375 1301.808594 1868.972656 1334.113281 C 1864.554688 1362.003906 1854.292969 1377.585938 1838.136719 1380.960938 C 1822.03125 1384.285156 1798.417969 1385.949219 1767.347656 1385.949219 C 1717.363281 1384.808594 1692.898438 1384.285156 1694.035156 1384.285156 C 1684.011719 1384.285156 1675.699219 1368.65625 1669 1337.488281 C 1657.929688 1285.128906 1646.191406 1195.382812 1634.03125 1068.386719 C 1620.726562 950.273438 1612.367188 883.996094 1609.039062 869.503906 C 1603.433594 847.222656 1597.351562 836.105469 1590.699219 836.105469 C 1586.28125 836.105469 1584.050781 847.792969 1584.050781 871.308594 C 1584.050781 1138.464844 1584.617188 1294.394531 1585.710938 1339.054688 C 1586.757812 1368.085938 1578.488281 1383.761719 1560.671875 1385.996094 L 1365.78125 1385.996094 C 1347.964844 1385.996094 1337.941406 1367.085938 1335.757812 1329.171875 C 1331.289062 1263.464844 1329.105469 1169.917969 1329.105469 1048.527344 C 1329.105469 909.316406 1332.382812 705.542969 1339.082031 437.152344 C 1344.640625 206.628906 1346.875 80.820312 1345.734375 59.679688 C 1344.59375 49.652344 1345.164062 40.769531 1347.394531 32.929688 C 1350.769531 20.671875 1356.804688 15.066406 1365.78125 16.207031 C 1425.742188 20.625 1489.027344 21.765625 1555.730469 19.53125 C 1566.800781 19.53125 1576.828125 31.789062 1585.757812 56.210938 C 1597.921875 90.65625 1652.371094 265.019531 1749.007812 579.402344 C 1757.890625 607.242188 1765.113281 621.070312 1770.671875 621.070312 C 1777.324219 621.070312 1784.546875 607.148438 1792.335938 579.210938 C 1833.433594 447.414062 1886.21875 270.863281 1950.644531 49.699219 C 1957.296875 26.277344 1970.078125 15.066406 1988.984375 16.207031 L 2163.921875 16.207031 C 2179.457031 16.207031 2187.25 31.789062 2187.25 62.957031 L 2200.550781 640.976562 C 2207.203125 959.488281 2208.914062 1188.871094 2205.589844 1329.21875 " clip-rule="nonzero"/></clipPath><clipPath id="aad478d182"><path d="M 0.105469 0.0429688 L 878.285156 0.0429688 L 878.285156 1369 L 0.105469 1369 Z M 0.105469 0.0429688 " clip-rule="nonzero"/></clipPath><clipPath id="3540d2d9a1"><path d="M 876.636719 1313.171875 C 876.636719 1332.128906 876.019531 1343.769531 874.972656 1348.285156 C 871.601562 1361.632812 864.949219 1368.855469 854.972656 1369.996094 C 850.503906 1371.136719 781.660156 1369.996094 648.296875 1366.625 C 630.527344 1366.625 621.074219 1354.414062 619.980469 1329.992188 C 617.75 1301.105469 617.226562 1249.984375 618.367188 1176.671875 C 618.367188 1127.785156 618.886719 1063.929688 619.980469 985.0625 C 621.074219 909.472656 621.644531 868.945312 621.644531 863.433594 C 621.644531 840.105469 619.410156 828.371094 614.992188 828.371094 C 609.386719 828.371094 604.398438 837.871094 599.980469 856.78125 C 591.09375 896.882812 580.546875 970.429688 568.335938 1077.421875 C 553.847656 1205.558594 544.4375 1285.808594 539.972656 1318.113281 C 535.554688 1346.003906 525.292969 1361.585938 509.136719 1364.960938 C 493.03125 1368.285156 469.417969 1369.949219 438.347656 1369.949219 C 388.363281 1368.808594 363.898438 1368.285156 365.035156 1368.285156 C 355.011719 1368.285156 346.699219 1352.65625 340 1321.488281 C 328.929688 1269.128906 317.191406 1179.382812 305.03125 1052.386719 C 291.726562 934.273438 283.367188 867.996094 280.039062 853.503906 C 274.433594 831.222656 268.351562 820.105469 261.699219 820.105469 C 257.28125 820.105469 255.050781 831.792969 255.050781 855.308594 C 255.050781 1122.464844 255.617188 1278.394531 256.710938 1323.054688 C 257.757812 1352.085938 249.488281 1367.761719 231.671875 1369.996094 L 36.78125 1369.996094 C 18.964844 1369.996094 8.941406 1351.085938 6.757812 1313.171875 C 2.289062 1247.464844 0.105469 1153.917969 0.105469 1032.527344 C 0.105469 893.316406 3.382812 689.542969 10.082031 421.152344 C 15.640625 190.628906 17.875 64.820312 16.734375 43.679688 C 15.59375 33.652344 16.164062 24.769531 18.394531 16.929688 C 21.769531 4.671875 27.804688 -0.933594 36.78125 0.207031 C 96.742188 4.625 160.027344 5.765625 226.730469 3.53125 C 237.800781 3.53125 247.828125 15.789062 256.757812 40.210938 C 268.921875 74.65625 323.371094 249.019531 420.007812 563.402344 C 428.890625 591.242188 436.113281 605.070312 441.671875 605.070312 C 448.324219 605.070312 455.546875 591.148438 463.335938 563.210938 C 504.433594 431.414062 557.21875 254.863281 621.644531 33.699219 C 628.296875 10.277344 641.078125 -0.933594 659.984375 0.207031 L 834.921875 0.207031 C 850.457031 0.207031 858.25 15.789062 858.25 46.957031 L 871.550781 624.976562 C 878.203125 943.488281 879.914062 1172.871094 876.589844 1313.21875 " clip-rule="nonzero"/></clipPath><clipPath id="d00a67191e"><rect x="0" width="879" y="0" height="1371"/></clipPath><clipPath id="8cc1d13f2c"><path d="M 2334.828125 20 L 2990.640625 20 L 2990.640625 1387 L 2334.828125 1387 Z M 2334.828125 20 " clip-rule="nonzero"/></clipPath><clipPath id="8635597500"><path d="M 2700.566406 914.414062 C 2683.890625 787.746094 2673.292969 724.414062 2668.875 724.414062 C 2663.316406 724.414062 2656.617188 751.6875 2648.875 806.085938 L 2635.570312 914.414062 C 2634.476562 917.738281 2639.75 920.207031 2651.390625 921.871094 C 2663.03125 923.535156 2673.863281 923.867188 2683.890625 922.679688 C 2694.960938 921.632812 2700.566406 918.832031 2700.566406 914.414062 M 2990.476562 1375.980469 C 2991.570312 1382.632812 2986.628906 1386.007812 2975.464844 1386.007812 L 2888.804688 1386.007812 C 2846.613281 1384.867188 2809.9375 1384.34375 2778.863281 1384.34375 C 2768.839844 1384.34375 2756.105469 1348.28125 2740.523438 1276.019531 C 2729.453125 1221.617188 2721.089844 1174.960938 2715.53125 1136.050781 C 2714.390625 1128.257812 2708.261719 1124.363281 2697.191406 1124.363281 L 2632.199219 1124.363281 C 2624.40625 1124.363281 2619.417969 1128.355469 2617.183594 1136.195312 C 2607.207031 1203.660156 2593.902344 1281.957031 2577.226562 1370.851562 C 2572.761719 1380.921875 2567.773438 1386.007812 2562.214844 1386.007812 L 2357.25 1386.007812 C 2339.53125 1386.007812 2332.261719 1379.308594 2335.632812 1365.957031 L 2448.949219 682.699219 C 2523.351562 243.9375 2567.773438 24.007812 2582.214844 22.867188 C 2642.222656 19.496094 2702.179688 19.496094 2762.1875 22.867188 C 2775.492188 24.007812 2816.585938 243.9375 2885.527344 682.75 L 2990.476562 1375.980469 " clip-rule="nonzero"/></clipPath><clipPath id="33d5f40445"><path d="M 0.828125 0.121094 L 656.640625 0.121094 L 656.640625 1366 L 0.828125 1366 Z M 0.828125 0.121094 " clip-rule="nonzero"/></clipPath><clipPath id="cd105a7447"><path d="M 366.566406 894.414062 C 349.890625 767.746094 339.292969 704.414062 334.875 704.414062 C 329.316406 704.414062 322.617188 731.6875 314.875 786.085938 L 301.570312 894.414062 C 300.476562 897.738281 305.75 900.207031 317.390625 901.871094 C 329.03125 903.535156 339.863281 903.867188 349.890625 902.679688 C 360.960938 901.632812 366.566406 898.832031 366.566406 894.414062 M 656.476562 1355.980469 C 657.570312 1362.632812 652.628906 1366.007812 641.464844 1366.007812 L 554.804688 1366.007812 C 512.613281 1364.867188 475.9375 1364.34375 444.863281 1364.34375 C 434.839844 1364.34375 422.105469 1328.28125 406.523438 1256.019531 C 395.453125 1201.617188 387.089844 1154.960938 381.53125 1116.050781 C 380.390625 1108.257812 374.261719 1104.363281 363.191406 1104.363281 L 298.199219 1104.363281 C 290.40625 1104.363281 285.417969 1108.355469 283.183594 1116.195312 C 273.207031 1183.660156 259.902344 1261.957031 243.226562 1350.851562 C 238.761719 1360.921875 233.773438 1366.007812 228.214844 1366.007812 L 23.25 1366.007812 C 5.53125 1366.007812 -1.738281 1359.308594 1.632812 1345.957031 L 114.949219 662.699219 C 189.351562 223.9375 233.773438 4.007812 248.214844 2.867188 C 308.222656 -0.503906 368.179688 -0.503906 428.1875 2.867188 C 441.492188 4.007812 482.585938 223.9375 551.527344 662.75 L 656.476562 1355.980469 " clip-rule="nonzero"/></clipPath><clipPath id="df3cc9f2fb"><rect x="0" width="657" y="0" height="1367"/></clipPath><clipPath id="cc27b3a242"><path d="M 3091 23.707031 L 3717.054688 23.707031 L 3717.054688 1391 L 3091 1391 Z M 3091 23.707031 " clip-rule="nonzero"/></clipPath><clipPath id="bf9d00663d"><path d="M 3717.03125 61.191406 C 3715.890625 3.417969 3713.132812 428.308594 3708.667969 1335.914062 C 3708.667969 1364.800781 3699.785156 1380.953125 3682.015625 1384.277344 C 3628.660156 1393.164062 3572.597656 1393.164062 3513.683594 1384.277344 C 3493.679688 1380.953125 3480.902344 1369.265625 3475.339844 1349.3125 C 3438.664062 1182.640625 3395.902344 993.832031 3347.015625 782.742188 C 3342.597656 766.066406 3335.945312 757.703125 3327.011719 757.703125 C 3320.359375 757.703125 3316.988281 769.34375 3316.988281 792.53125 L 3316.988281 1027.898438 C 3315.847656 1160.550781 3315.371094 1263.886719 3315.371094 1337.859375 C 3315.371094 1360.046875 3301.453125 1373.828125 3273.65625 1379.289062 C 3254.796875 1383.710938 3229.757812 1385.371094 3198.683594 1384.277344 C 3158.679688 1383.140625 3135.875 1382.617188 3130.316406 1382.617188 C 3108.082031 1383.757812 3096.441406 1371.023438 3095.347656 1344.417969 C 3091.023438 1189.292969 3089.882812 955.445312 3092.164062 642.964844 C 3094.398438 340.414062 3098.246094 148.089844 3103.804688 66.085938 C 3106.039062 39.480469 3113.210938 25.652344 3125.46875 24.5625 C 3152.125 23.421875 3188.234375 23.421875 3233.796875 24.5625 C 3289.335938 26.792969 3319.316406 27.886719 3323.78125 27.886719 C 3339.363281 27.886719 3349.34375 39.527344 3353.808594 62.855469 C 3409.347656 331.71875 3448.261719 505.039062 3470.449219 582.816406 C 3479.332031 612.84375 3486.507812 627.808594 3492.113281 627.808594 C 3499.90625 627.808594 3502.660156 610.515625 3500.476562 575.972656 C 3496.007812 485.75 3493.824219 314.1875 3493.824219 61.289062 C 3493.824219 35.726562 3504.894531 23.46875 3527.128906 24.5625 L 3682.0625 24.5625 C 3705.34375 25.703125 3717.03125 37.863281 3717.03125 61.238281 " clip-rule="nonzero"/></clipPath><clipPath id="a569e45f22"><path d="M 0 0.707031 L 626.054688 0.707031 L 626.054688 1368 L 0 1368 Z M 0 0.707031 " clip-rule="nonzero"/></clipPath><clipPath id="506f260d45"><path d="M 626.03125 38.191406 C 624.890625 -19.582031 622.132812 405.308594 617.667969 1312.914062 C 617.667969 1341.800781 608.785156 1357.953125 591.015625 1361.277344 C 537.660156 1370.164062 481.597656 1370.164062 422.683594 1361.277344 C 402.679688 1357.953125 389.902344 1346.265625 384.339844 1326.3125 C 347.664062 1159.640625 304.902344 970.832031 256.015625 759.742188 C 251.597656 743.066406 244.945312 734.703125 236.011719 734.703125 C 229.359375 734.703125 225.988281 746.34375 225.988281 769.53125 L 225.988281 1004.898438 C 224.847656 1137.550781 224.371094 1240.886719 224.371094 1314.859375 C 224.371094 1337.046875 210.453125 1350.828125 182.65625 1356.289062 C 163.796875 1360.710938 138.757812 1362.371094 107.683594 1361.277344 C 67.679688 1360.140625 44.875 1359.617188 39.316406 1359.617188 C 17.082031 1360.757812 5.441406 1348.023438 4.347656 1321.417969 C 0.0234375 1166.292969 -1.117188 932.445312 1.164062 619.964844 C 3.398438 317.414062 7.246094 125.089844 12.804688 43.085938 C 15.039062 16.480469 22.210938 2.652344 34.46875 1.5625 C 61.125 0.421875 97.234375 0.421875 142.796875 1.5625 C 198.335938 3.792969 228.316406 4.886719 232.78125 4.886719 C 248.363281 4.886719 258.34375 16.527344 262.808594 39.855469 C 318.347656 308.71875 357.261719 482.039062 379.449219 559.816406 C 388.332031 589.84375 395.507812 604.808594 401.113281 604.808594 C 408.90625 604.808594 411.660156 587.515625 409.476562 552.972656 C 405.007812 462.75 402.824219 291.1875 402.824219 38.289062 C 402.824219 12.726562 413.894531 0.46875 436.128906 1.5625 L 591.0625 1.5625 C 614.34375 2.703125 626.03125 14.863281 626.03125 38.238281 " clip-rule="nonzero"/></clipPath><clipPath id="5394b541be"><rect x="0" width="627" y="0" height="1368"/></clipPath><clipPath id="63b10ef24a"><path d="M 3832.863281 20 L 4488.714844 20 L 4488.714844 1387 L 3832.863281 1387 Z M 3832.863281 20 " clip-rule="nonzero"/></clipPath><clipPath id="9fa2d951c3"><path d="M 4198.605469 914.410156 C 4181.976562 787.746094 4171.378906 724.414062 4166.960938 724.414062 C 4161.355469 724.414062 4154.703125 751.6875 4146.910156 806.085938 L 4133.609375 914.410156 C 4132.515625 917.738281 4137.789062 920.207031 4149.476562 921.871094 C 4161.117188 923.535156 4171.949219 923.867188 4181.976562 922.679688 C 4193.042969 921.632812 4198.605469 918.832031 4198.605469 914.410156 M 4488.5625 1375.980469 C 4489.65625 1382.632812 4484.667969 1386.003906 4473.550781 1386.003906 L 4386.890625 1386.003906 C 4344.699219 1384.867188 4308.019531 1384.34375 4276.902344 1384.34375 C 4266.925781 1384.34375 4254.144531 1348.28125 4238.609375 1276.019531 C 4227.492188 1221.617188 4219.128906 1174.960938 4213.570312 1136.050781 C 4212.429688 1128.257812 4206.347656 1124.363281 4195.277344 1124.363281 L 4130.28125 1124.363281 C 4122.492188 1124.363281 4117.453125 1128.355469 4115.269531 1136.191406 C 4105.246094 1203.660156 4091.941406 1281.957031 4075.265625 1370.851562 C 4070.847656 1380.921875 4065.859375 1386.003906 4060.25 1386.003906 L 3855.335938 1386.003906 C 3837.519531 1386.003906 3830.296875 1379.308594 3833.671875 1365.957031 L 3946.984375 682.699219 C 4021.433594 243.9375 4065.859375 24.007812 4080.300781 22.867188 C 4140.261719 19.496094 4200.265625 19.496094 4260.273438 22.867188 C 4273.574219 24.007812 4314.671875 243.9375 4383.5625 682.75 L 4488.5625 1375.933594 " clip-rule="nonzero"/></clipPath><clipPath id="1d8fbc825f"><path d="M 0.863281 0.121094 L 656.714844 0.121094 L 656.714844 1366 L 0.863281 1366 Z M 0.863281 0.121094 " clip-rule="nonzero"/></clipPath><clipPath id="0fabc54518"><path d="M 366.605469 894.410156 C 349.976562 767.746094 339.378906 704.414062 334.960938 704.414062 C 329.355469 704.414062 322.703125 731.6875 314.910156 786.085938 L 301.609375 894.410156 C 300.515625 897.738281 305.789062 900.207031 317.476562 901.871094 C 329.117188 903.535156 339.949219 903.867188 349.976562 902.679688 C 361.042969 901.632812 366.605469 898.832031 366.605469 894.410156 M 656.5625 1355.980469 C 657.65625 1362.632812 652.667969 1366.003906 641.550781 1366.003906 L 554.890625 1366.003906 C 512.699219 1364.867188 476.019531 1364.34375 444.902344 1364.34375 C 434.925781 1364.34375 422.144531 1328.28125 406.609375 1256.019531 C 395.492188 1201.617188 387.128906 1154.960938 381.570312 1116.050781 C 380.429688 1108.257812 374.347656 1104.363281 363.277344 1104.363281 L 298.28125 1104.363281 C 290.492188 1104.363281 285.453125 1108.355469 283.269531 1116.191406 C 273.246094 1183.660156 259.941406 1261.957031 243.265625 1350.851562 C 238.847656 1360.921875 233.859375 1366.003906 228.25 1366.003906 L 23.335938 1366.003906 C 5.519531 1366.003906 -1.703125 1359.308594 1.671875 1345.957031 L 114.984375 662.699219 C 189.433594 223.9375 233.859375 4.007812 248.300781 2.867188 C 308.261719 -0.503906 368.265625 -0.503906 428.273438 2.867188 C 441.574219 4.007812 482.671875 223.9375 551.5625 662.75 L 656.5625 1355.933594 " clip-rule="nonzero"/></clipPath><clipPath id="761fe5d138"><rect x="0" width="657" y="0" height="1367"/></clipPath><clipPath id="ea4b21e31b"><path d="M 4600.203125 26.171875 L 4835.203125 26.171875 L 4835.203125 1389 L 4600.203125 1389 Z M 4600.203125 26.171875 " clip-rule="nonzero"/></clipPath><clipPath id="f34c830f58"><path d="M 4835.195312 1336.003906 C 4835.195312 1362.65625 4826.261719 1378.191406 4808.492188 1382.660156 C 4781.839844 1390.453125 4723.496094 1390.453125 4633.558594 1382.660156 C 4611.273438 1380.378906 4600.203125 1362.65625 4600.203125 1329.351562 C 4602.4375 953.824219 4603.007812 536.109375 4601.867188 76.152344 C 4601.867188 65.082031 4602.960938 55.105469 4605.238281 46.171875 C 4608.566406 32.824219 4614.648438 26.171875 4623.53125 26.171875 C 4671.28125 26.171875 4731.855469 27.3125 4805.167969 29.542969 C 4824.027344 31.777344 4834.054688 47.363281 4835.148438 76.199219 Z M 4835.195312 1336.003906 " clip-rule="nonzero"/></clipPath><clipPath id="f1f9991a54"><path d="M 0.203125 0.171875 L 235.203125 0.171875 L 235.203125 1363 L 0.203125 1363 Z M 0.203125 0.171875 " clip-rule="nonzero"/></clipPath><clipPath id="e19ad7d770"><path d="M 235.195312 1310.003906 C 235.195312 1336.65625 226.261719 1352.191406 208.492188 1356.660156 C 181.839844 1364.453125 123.496094 1364.453125 33.558594 1356.660156 C 11.273438 1354.378906 0.203125 1336.65625 0.203125 1303.351562 C 2.4375 927.824219 3.007812 510.109375 1.867188 50.152344 C 1.867188 39.082031 2.960938 29.105469 5.238281 20.171875 C 8.566406 6.824219 14.648438 0.171875 23.53125 0.171875 C 71.28125 0.171875 131.855469 1.3125 205.167969 3.542969 C 224.027344 5.777344 234.054688 21.363281 235.148438 50.199219 Z M 235.195312 1310.003906 " clip-rule="nonzero"/></clipPath><clipPath id="bba763b3db"><rect x="0" width="236" y="0" height="1363"/></clipPath><clipPath id="9448d33c3a"><path d="M 4923.265625 24.007812 L 5044.796875 24.007812 L 5044.796875 42.109375 L 4923.265625 42.109375 Z M 4973.769531 42.109375 L 4994.054688 42.109375 L 4994.054688 177.324219 L 4973.769531 177.324219 Z M 4973.769531 42.109375 " clip-rule="nonzero"/></clipPath><clipPath id="6c2c81ab98"><path d="M 0.265625 0.0078125 L 121.796875 0.0078125 L 121.796875 18.109375 L 0.265625 18.109375 Z M 50.769531 18.109375 L 71.054688 18.109375 L 71.054688 153.324219 L 50.769531 153.324219 Z M 50.769531 18.109375 " clip-rule="nonzero"/></clipPath><clipPath id="6667e98d84"><rect x="0" width="122" y="0" height="154"/></clipPath><clipPath id="fed79de541"><path d="M 5067 24 L 5214 24 L 5214 177.542969 L 5067 177.542969 Z M 5067 24 " clip-rule="nonzero"/></clipPath><clipPath id="dedf65bc76"><path d="M 5067.128906 177.324219 L 5067.128906 24.007812 L 5097.628906 24.007812 L 5133.929688 132.570312 C 5137.300781 142.6875 5139.722656 150.242188 5141.246094 155.28125 C 5143.003906 149.671875 5145.710938 141.5 5149.417969 130.667969 L 5186.09375 24.007812 L 5213.367188 24.007812 L 5213.367188 177.324219 L 5193.839844 177.324219 L 5193.839844 49.046875 L 5149.273438 177.324219 L 5130.980469 177.324219 L 5086.65625 46.8125 L 5086.65625 177.324219 Z M 5067.128906 177.324219 " clip-rule="nonzero"/></clipPath><clipPath id="ce77873fae"><path d="M 0 0 L 146.585938 0 L 146.585938 153.542969 L 0 153.542969 Z M 0 0 " clip-rule="nonzero"/></clipPath><clipPath id="2c59319dc2"><path d="M 0.128906 153.324219 L 0.128906 0.0078125 L 30.628906 0.0078125 L 66.929688 108.570312 C 70.300781 118.6875 72.722656 126.242188 74.246094 131.28125 C 76.003906 125.671875 78.710938 117.5 82.417969 106.667969 L 119.09375 0.0078125 L 146.367188 0.0078125 L 146.367188 153.324219 L 126.839844 153.324219 L 126.839844 25.046875 L 82.273438 153.324219 L 63.980469 153.324219 L 19.65625 22.8125 L 19.65625 153.324219 Z M 0.128906 153.324219 " clip-rule="nonzero"/></clipPath><clipPath id="08e03ecfa0"><rect x="0" width="147" y="0" height="154"/></clipPath><clipPath id="19f0917022"><rect x="0" width="5238" y="0" height="1394"/></clipPath></defs><g transform="matrix(1, 0, 0, 1, 490, 474)"><g clip-path="url(#19f0917022)"><g clip-path="url(#7be47a58a6)"><g clip-path="url(#350b077b72)"><g transform="matrix(1, 0, 0, 1, 0, 19)"><g clip-path="url(#35d5034433)"><g clip-path="url(#63482d4ce6)"><g clip-path="url(#81cbd3f067)"><path fill="#ffffff" d="M 0.0351562 0.03125 L 490.070312 0.03125 L 490.070312 1359.109375 L 0.0351562 1359.109375 Z M 0.0351562 0.03125 " fill-opacity="1" fill-rule="nonzero"/></g></g></g></g></g></g><g clip-path="url(#d5792b7c4c)"><g clip-path="url(#3b8c028ab7)"><g transform="matrix(1, 0, 0, 1, 612, 22)"><g clip-path="url(#b926d93baa)"><g clip-path="url(#6cba38a182)"><g clip-path="url(#10e3a3fe63)"><path fill="#ffffff" d="M 0.554688 0.867188 L 583.8125 0.867188 L 583.8125 1361.035156 L 0.554688 1361.035156 Z M 0.554688 0.867188 " fill-opacity="1" fill-rule="nonzero"/></g></g></g></g></g></g><g clip-path="url(#fcb4cb7896)"><g clip-path="url(#7a430bba1f)"><g transform="matrix(1, 0, 0, 1, 1329, 16)"><g clip-path="url(#d00a67191e)"><g clip-path="url(#aad478d182)"><g clip-path="url(#3540d2d9a1)"><path fill="#ffffff" d="M 0.105469 0.0625 L 878.285156 0.0625 L 878.285156 1368.789062 L 0.105469 1368.789062 Z M 0.105469 0.0625 " fill-opacity="1" fill-rule="nonzero"/></g></g></g></g></g></g><g clip-path="url(#8cc1d13f2c)"><g clip-path="url(#8635597500)"><g transform="matrix(1, 0, 0, 1, 2334, 20)"><g clip-path="url(#df3cc9f2fb)"><g clip-path="url(#33d5f40445)"><g clip-path="url(#cd105a7447)"><path fill="#ffffff" d="M 0.828125 0.351562 L 656.640625 0.351562 L 656.640625 1365.773438 L 0.828125 1365.773438 Z M 0.828125 0.351562 " fill-opacity="1" fill-rule="nonzero"/></g></g></g></g></g></g><g clip-path="url(#cc27b3a242)"><g clip-path="url(#bf9d00663d)"><g transform="matrix(1, 0, 0, 1, 3091, 23)"><g clip-path="url(#5394b541be)"><g clip-path="url(#a569e45f22)"><g clip-path="url(#506f260d45)"><path fill="#ffffff" d="M 0.0234375 0.707031 L 626.054688 0.707031 L 626.054688 1367.699219 L 0.0234375 1367.699219 Z M 0.0234375 0.707031 " fill-opacity="1" fill-rule="nonzero"/></g></g></g></g></g></g><g clip-path="url(#63b10ef24a)"><g clip-path="url(#9fa2d951c3)"><g transform="matrix(1, 0, 0, 1, 3832, 20)"><g clip-path="url(#761fe5d138)"><g clip-path="url(#1d8fbc825f)"><g clip-path="url(#0fabc54518)"><path fill="#ffffff" d="M 0.863281 0.351562 L 656.714844 0.351562 L 656.714844 1365.851562 L 0.863281 1365.851562 Z M 0.863281 0.351562 " fill-opacity="1" fill-rule="nonzero"/></g></g></g></g></g></g><g clip-path="url(#ea4b21e31b)"><g clip-path="url(#f34c830f58)"><g transform="matrix(1, 0, 0, 1, 4600, 26)"><g clip-path="url(#bba763b3db)"><g clip-path="url(#f1f9991a54)"><g clip-path="url(#e19ad7d770)"><path fill="#ffffff" d="M 0.203125 0.171875 L 235.203125 0.171875 L 235.203125 1362.433594 L 0.203125 1362.433594 Z M 0.203125 0.171875 " fill-opacity="1" fill-rule="nonzero"/></g></g></g></g></g></g><g clip-path="url(#9448d33c3a)"><g transform="matrix(1, 0, 0, 1, 4923, 24)"><g clip-path="url(#6667e98d84)"><g clip-path="url(#6c2c81ab98)"><rect x="-7530.115" width="10050.48" fill="#ffffff" y="-1354.400984" height="4065.551924" fill-opacity="1"/></g></g></g></g><g clip-path="url(#fed79de541)"><g clip-path="url(#dedf65bc76)"><g transform="matrix(1, 0, 0, 1, 5067, 24)"><g clip-path="url(#08e03ecfa0)"><g clip-path="url(#ce77873fae)"><g clip-path="url(#2c59319dc2)"><rect x="-7674.115" width="10050.48" fill="#ffffff" y="-1354.400984" height="4065.551924" fill-opacity="1"/></g></g></g></g></g></g></g></g></svg>